<?xml version="1.0" encoding="utf-8"?>
<svg id="svg2" version="1.1" height="375.58667" width="793.70667" xmlns="http://www.w3.org/2000/svg">
  <g transform="matrix(1.3333333,0,0,-1.3333333,0,375.58667)" id="g10">
    <g id="g12">
      <g clip-path="url(#clipPath18)" id="g14">
        <g transform="translate(462.8519,165.2271)" id="g20">
          <path id="path22" style="fill:#811518;fill-opacity:1;fill-rule:nonzero;stroke:none" d="M 0,0 C 0.971,15.315 -33.087,11.779 -44.616,2.642 -50.25,0.266 -56.457,-0.641 -55.191,-1.392 -47.899,-5.737 -0.502,-7.809 0,0"/>
        </g>
        <g transform="translate(109.6076,37.5423)" id="g24">
          <path id="path26" style="fill:#811518;fill-opacity:1;fill-rule:nonzero;stroke:none" d="m 0,0 c 0,-4.131 1.25,-7.512 3.751,-10.154 2.501,-2.635 5.546,-3.956 9.135,-3.956 3.588,0 6.714,1.308 9.378,3.918 2.665,2.609 3.998,5.996 3.998,10.153 0,4.157 -1.305,7.616 -3.915,10.361 -2.61,2.746 -5.737,4.119 -9.38,4.119 -3.644,0 -6.715,-1.373 -9.216,-4.119 C 1.25,7.577 0,4.131 0,0 m 14.272,22.431 c 5.818,0 10.793,-2.014 14.926,-6.035 4.132,-4.021 6.199,-9.376 6.199,-16.066 0,-6.689 -2.055,-12.128 -6.158,-16.312 -4.106,-4.189 -8.891,-6.281 -14.355,-6.281 -5.464,0 -10.372,2.39 -14.722,7.175 v -6.521 h -9.134 v 60.514 h 9.134 v -24.71 c 3.589,5.491 8.292,8.236 14.11,8.236"/>
        </g>
        <g transform="translate(161.3957,37.3805)" id="g28">
          <path id="path30" style="fill:#811518;fill-opacity:1;fill-rule:nonzero;stroke:none" d="m 0,0 c 0,-0.706 0.026,-1.224 0.084,-1.548 l 24.06,10.361 c -1.852,3.588 -5.138,5.381 -9.869,5.381 -3.59,0 -6.867,-1.249 -9.83,-3.756 C 1.483,7.939 0,4.462 0,0 m 13.783,22.593 c 5.929,0 10.85,-1.645 14.765,-4.934 3.914,-3.29 5.899,-7.57 5.954,-12.848 L 34.583,4.649 2.937,-8.645 c 2.826,-3.477 6.673,-5.219 11.542,-5.219 4.864,0 8.875,1.904 12.029,5.711 l 5.384,-5.957 c -5.167,-5.33 -11.257,-7.991 -18.271,-7.991 -6.145,0 -11.419,2.04 -15.822,6.119 -4.404,4.073 -6.607,9.461 -6.607,16.144 0,4.623 1.143,8.69 3.425,12.193 2.284,3.51 5.111,6.094 8.482,7.751 3.373,1.658 6.935,2.487 10.684,2.487"/>
        </g>
        <g transform="translate(211.7174,37.4256)" id="g32">
          <path id="path34" style="fill:#811518;fill-opacity:1;fill-rule:nonzero;stroke:none" d="m 0,0 c 0,-4.164 1.334,-7.544 3.998,-10.16 2.662,-2.61 5.79,-3.911 9.377,-3.911 3.591,0 6.634,1.314 9.137,3.956 2.5,2.636 3.75,6.023 3.75,10.154 0,4.132 -1.25,7.583 -3.75,10.354 -2.503,2.778 -5.575,4.164 -9.218,4.164 -3.642,0 -6.77,-1.386 -9.38,-4.164 C 1.305,7.622 0,4.158 0,0 m -3.018,-15.949 c -4.076,4.131 -6.116,9.571 -6.116,16.312 0,6.741 2.092,12.128 6.281,16.15 4.187,4.021 9.134,6.035 14.842,6.035 5.708,0 10.413,-2.72 14.11,-8.153 v 7.499 h 9.134 v -43.386 h -9.134 v 7.097 c -1.741,-2.506 -3.956,-4.423 -6.647,-5.75 -2.69,-1.334 -5.397,-2.001 -8.113,-2.001 -5.495,0 -10.277,2.065 -14.357,6.197"/>
        </g>
        <g transform="translate(271.6646,15.9333)" id="g36">
          <path id="path38" style="fill:#811518;fill-opacity:1;fill-rule:nonzero;stroke:none" d="m 0,0 -17.452,43.386 h 9.461 L 5.219,10.601 18.433,43.386 h 9.46 L 10.442,0 Z"/>
        </g>
        <g transform="translate(312.7713,37.3805)" id="g40">
          <path id="path42" style="fill:#811518;fill-opacity:1;fill-rule:nonzero;stroke:none" d="M 0,0 C 0,-0.706 0.029,-1.224 0.081,-1.548 L 24.144,8.813 c -1.852,3.588 -5.138,5.381 -9.869,5.381 -3.59,0 -6.867,-1.249 -9.829,-3.756 C 1.483,7.939 0,4.462 0,0 m 13.783,22.593 c 5.929,0 10.85,-1.645 14.765,-4.934 3.914,-3.29 5.899,-7.57 5.954,-12.848 L 34.583,4.649 2.937,-8.645 c 2.826,-3.477 6.673,-5.219 11.542,-5.219 4.864,0 8.875,1.904 12.029,5.711 l 5.384,-5.957 c -5.167,-5.33 -11.257,-7.991 -18.271,-7.991 -6.145,0 -11.419,2.04 -15.822,6.119 -4.404,4.073 -6.606,9.461 -6.606,16.144 0,4.623 1.14,8.69 3.426,12.193 2.283,3.51 5.109,6.094 8.48,7.751 3.373,1.658 6.935,2.487 10.684,2.487"/>
        </g>
        <g transform="translate(379.4857,50.7588)" id="g44">
          <path id="path46" style="fill:#811518;fill-opacity:1;fill-rule:nonzero;stroke:none" d="m 0,0 c -4.513,0 -7.91,-1.47 -10.192,-4.403 -2.286,-2.94 -3.426,-6.884 -3.426,-11.831 v -18.591 h -9.137 V 8.561 h 9.137 v -8.723 c 1.467,2.714 3.464,4.948 5.993,6.683 2.529,1.742 5.206,2.642 8.033,2.694 L 0.492,0 Z"/>
        </g>
        <g transform="translate(398.2454,39.4202)" id="g48">
          <path id="path50" style="fill:#811518;fill-opacity:1;fill-rule:nonzero;stroke:none" d="M 0,0 V -23.487 H -9.137 V 36.949 H 0 V 11.993 c 1.305,2.661 3.273,4.753 5.912,6.275 2.636,1.521 5.479,2.285 8.522,2.285 4.896,0 8.849,-1.495 11.866,-4.487 3.021,-2.992 4.53,-7.311 4.53,-12.964 V -23.487 H 21.693 V 0.324 c 0,7.997 -3.315,11.993 -9.95,11.993 -3.153,0 -5.899,-1.05 -8.237,-3.141 C 1.169,7.084 0,4.021 0,0"/>
        </g>
        <g transform="translate(447.7512,37.3805)" id="g52">
          <path id="path54" style="fill:#811518;fill-opacity:1;fill-rule:nonzero;stroke:none" d="M 0,0 C 0,-0.706 0.029,-1.224 0.081,-1.548 L 24.144,8.813 c -1.852,3.588 -5.138,5.381 -9.869,5.381 -3.591,0 -6.867,-1.249 -9.83,-3.756 C 1.483,7.939 0,4.462 0,0 m 13.783,22.593 c 5.929,0 10.85,-1.645 14.764,-4.934 3.915,-3.29 5.9,-7.57 5.955,-12.848 L 34.582,4.649 2.937,-8.645 c 2.826,-3.477 6.673,-5.219 11.542,-5.219 4.863,0 8.875,1.904 12.029,5.711 l 5.384,-5.957 c -5.168,-5.33 -11.258,-7.991 -18.271,-7.991 -6.145,0 -11.42,2.04 -15.823,6.119 -4.403,4.073 -6.605,9.461 -6.605,16.144 0,4.623 1.14,8.69 3.426,12.193 2.282,3.51 5.109,6.094 8.479,7.751 3.374,1.658 6.936,2.487 10.685,2.487"/>
        </g>
        <g transform="translate(498.0726,37.4256)" id="g56">
          <path id="path58" style="fill:#811518;fill-opacity:1;fill-rule:nonzero;stroke:none" d="m 0,0 c 0,-4.164 1.334,-7.544 3.998,-10.16 2.662,-2.61 5.79,-3.911 9.377,-3.911 3.591,0 6.634,1.314 9.137,3.956 2.5,2.636 3.75,6.023 3.75,10.154 0,4.132 -1.25,7.583 -3.75,10.354 -2.503,2.778 -5.575,4.164 -9.218,4.164 -3.642,0 -6.77,-1.386 -9.379,-4.164 C 1.305,7.622 0,4.158 0,0 m -3.018,-15.949 c -4.076,4.131 -6.116,9.571 -6.116,16.312 0,6.741 2.092,12.128 6.281,16.15 4.187,4.021 9.134,6.035 14.842,6.035 5.709,0 10.413,-2.72 14.111,-8.153 v 7.499 h 9.133 V -21.492 H 26.1 v 7.097 c -1.742,-2.506 -3.957,-4.423 -6.647,-5.75 -2.691,-1.334 -5.398,-2.001 -8.114,-2.001 -5.495,0 -10.277,2.065 -14.357,6.197"/>
        </g>
        <g transform="translate(552.8815,37.4256)" id="g60">
          <path id="path62" style="fill:#811518;fill-opacity:1;fill-rule:nonzero;stroke:none" d="m 0,0 c 0,-4.164 1.334,-7.544 3.999,-10.16 2.661,-2.61 5.789,-3.911 9.376,-3.911 3.591,0 6.635,1.314 9.137,3.956 2.5,2.636 3.75,6.023 3.75,10.154 0,4.132 -1.25,7.583 -3.75,10.354 -2.502,2.778 -5.575,4.164 -9.218,4.164 -3.642,0 -6.77,-1.386 -9.379,-4.164 C 1.305,7.622 0,4.158 0,0 m -3.017,-15.949 c -4.077,4.131 -6.116,9.571 -6.116,16.312 0,6.741 2.091,12.128 6.281,16.15 4.186,4.021 9.172,6.035 14.965,6.035 5.789,0 10.451,-2.448 13.987,-7.337 v 23.811 h 9.134 V -21.492 H 26.1 v 6.521 c -3.371,-4.786 -8.292,-7.175 -14.761,-7.175 -5.495,0 -10.277,2.065 -14.356,6.197"/>
        </g>
        <g transform="translate(16.1299,43.9465)" id="g64">
          <path id="path66" style="fill:#811518;fill-opacity:1;fill-rule:nonzero;stroke:none" d="m 0,0 v -11.572 c 0,-1.088 0.285,-1.949 0.858,-2.59 0.57,-0.648 1.371,-0.965 2.399,-0.965 1.028,0 2.014,0.499 2.956,1.496 l 1.972,-3.38 c -1.687,-1.515 -3.55,-2.273 -5.592,-2.273 -2.043,0 -3.786,0.706 -5.229,2.117 -1.442,1.418 -2.162,3.323 -2.162,5.725 V 11.009 H 0 V 3.853 H 5.999 L 5.999,0 Z"/>
        </g>
        <g transform="translate(32.9274,37.348)" id="g68">
          <path id="path70" style="fill:#811518;fill-opacity:1;fill-rule:nonzero;stroke:none" d="M 0,0 V -12.342 H -4.8 V 19.407 H 0 V 6.294 c 0.685,1.399 1.719,2.5 3.107,3.303 1.384,0.796 2.876,1.198 4.478,1.198 2.57,0 4.649,-0.784 6.234,-2.357 1.585,-1.574 2.378,-3.84 2.378,-6.813 v -13.967 h -4.8 v 12.51 c 0,4.203 -1.742,6.301 -5.228,6.301 -1.656,0 -3.1,-0.55 -4.327,-1.651 C 0.613,3.717 0,2.111 0,0"/>
        </g>
        <g transform="translate(58.9364,36.2731)" id="g72">
          <path id="path74" style="fill:#811518;fill-opacity:1;fill-rule:nonzero;stroke:none" d="M 0,0 C 0,-0.369 0.015,-0.641 0.044,-0.816 L 12.684,4.63 C 11.713,6.514 9.985,7.46 7.499,7.46 5.614,7.46 3.892,6.799 2.336,5.485 0.779,4.17 0,2.344 0,0 m 7.243,11.87 c 3.113,0 5.698,-0.862 7.756,-2.591 2.056,-1.729 3.099,-3.982 3.128,-6.747 L 18.169,2.441 1.543,-4.539 c 1.486,-1.833 3.506,-2.746 6.064,-2.746 2.556,0 4.663,1.004 6.32,2.998 l 2.828,-3.127 c -2.714,-2.798 -5.913,-4.197 -9.598,-4.197 -3.229,0 -6,1.069 -8.313,3.212 -2.315,2.144 -3.471,4.973 -3.471,8.483 0,2.428 0.599,4.565 1.799,6.411 1.199,1.839 2.685,3.199 4.457,4.066 1.771,0.875 3.642,1.309 5.614,1.309"/>
        </g>
        <g transform="translate(32.9566,113.0149)" id="g76">
          <path id="path78" style="fill:#811518;fill-opacity:1;fill-rule:nonzero;stroke:none" d="M 0,0 H 12.815 C 46.151,30.973 86.942,63.188 133.853,89.311 234.797,145.525 517.801,66.407 535.068,53.248 548.9,42.713 533.193,24.251 526.394,0 h 10.607 c 1.923,9.869 6.256,17.38 13.689,26.938 11.507,14.797 -5.397,43.464 -20.197,53.326 -14.8,9.869 -59.559,15.736 -96.551,31.335 -36.997,15.6 -228.564,42.771 -304.198,33.732 C 53.282,148.62 68.08,88.605 68.08,88.605 Z"/>
        </g>
      </g>
    </g>
  </g>
</svg>